<?xml version="1.0" encoding="utf-8"?>
<!-- Generator: Adobe Illustrator 22.1.0, SVG Export Plug-In . SVG Version: 6.00 Build 0)  -->
<svg version="1.1" id="Thumbs_Up" xmlns="http://www.w3.org/2000/svg" xmlns:xlink="http://www.w3.org/1999/xlink" x="0px" y="0px"
	 viewBox="0 0 5000 5000" style="enable-background:new 0 0 5000 5000;" xml:space="preserve">
<style type="text/css">
	.st0{fill:#F7BA09;}
	.st1{fill:#FCFCFC;}
	.st2{fill:#FDFDFD;}
	.st3{fill:#4284F2;}
	.st4{fill:#E74236;}
	.st5{fill:#36A653;}
</style>
<g>
	<path class="st0" d="M1592.7,2825.1c-45,34.3-90.1,68.4-135,102.8c-142.3,108.9-284.5,217.8-426.7,326.7
		c-8.4-8.4-12-19.6-16.6-29.9c-19.1-42.6-38.4-85.2-55.2-128.7c-13.7-35.4-26.1-71.4-37.5-107.7c-19.9-63.4-36.8-127.7-49.3-192.9
		c-6.2-32-12.1-64.3-14.8-97c-0.7-8.3-0.8-16.9-2.7-25.1c-1.8-3.8,0.5-8.3-1.8-12.1c-0.2-3.8-0.4-7.6-0.6-11.4
		c-1.9-4.6,0.8-9.7-1.8-14.2c-0.2-4.6-0.4-9.3-0.7-13.9c-1.8-5.4,0.9-11.2-1.7-16.5c-0.2-6.2-0.4-12.4-0.6-18.6
		c-2-8.6,1-17.5-1.7-26.1c0-38.9-0.1-77.7-0.1-116.6c2.9-8.4-0.2-17.3,1.7-25.8c0.2-6.2,0.4-12.5,0.6-18.7c2.7-5.3,0-11,1.6-16.4
		c0.2-4.7,0.5-9.4,0.7-14.1c2.6-4.4,0-9.5,1.7-14.1c0.2-3.9,0.4-7.7,0.7-11.6c2.4-3.7,0-8.1,1.8-11.9c3.2-40.7,9.6-81,17.4-121
		c9.2-47.2,19.8-94.2,33.3-140.5c10.5-36.2,21.4-72.3,34-107.9c18-50.8,37.5-101,59.8-150c10.1-22.2,18.8-45.1,31.5-66
		c20.7,19,43.9,34.9,66.1,51.9c122.4,93.9,245,187.6,367.5,281.3c42.7,32.6,85.6,65,128.5,97.5c-14.6,47.7-27.5,95.9-36,145.1
		c-3.6,20.8-8.6,41.6-8.1,63c-2.5,3.7,0,8.1-1.8,11.9c-0.2,3.1-0.3,6.2-0.5,9.3c-2.6,4.4,0,9.5-1.7,14.1c-0.3,5.3-0.5,10.6-0.8,15.9
		c-2.4,6.3,0.1,12.9-1.5,19.2c-1.7,31.3-1.4,62.7-0.1,94c2,7-1,14.3,1.8,21.2c0.2,4.6,0.4,9.3,0.5,13.9c1.9,4.6-0.7,9.8,1.8,14.4
		c1.2,40.4,9.6,79.8,17.5,119.2C1571.2,2754.4,1581.6,2789.9,1592.7,2825.1z"/>
	<path class="st1" d="M846.1,2560.5c2.2,8.6,1.8,17.4,1.7,26.1C843.8,2578.1,846.7,2569.2,846.1,2560.5z"/>
	<path class="st1" d="M847.7,2418.1c0.2,8.6,0.7,17.3-1.7,25.8C846.8,2435.4,843.9,2426.5,847.7,2418.1z"/>
	<path class="st2" d="M1544.1,2570.6c-2.3-6.9-1.9-14.1-1.8-21.2C1546.1,2556.2,1543.4,2563.5,1544.1,2570.6z"/>
	<path class="st2" d="M1542.5,2455.3c-0.4-6.5-0.7-12.9,1.5-19.2C1543.6,2442.5,1545.9,2449.2,1542.5,2455.3z"/>
	<path class="st1" d="M850,2383c0.2,5.5,0.6,11.1-1.6,16.4C848.9,2394,846.6,2388.2,850,2383z"/>
	<path class="st1" d="M848.4,2605.2c2.2,5.3,1.8,11,1.7,16.5C846.6,2616.5,848.9,2610.7,848.4,2605.2z"/>
	<path class="st1" d="M852.4,2354.9c0.2,4.8,0.5,9.6-1.7,14.1C851.2,2364.3,849.1,2359.2,852.4,2354.9z"/>
	<path class="st2" d="M1544.8,2420.2c-0.2-4.8-0.6-9.6,1.7-14.1C1546,2410.8,1548.1,2415.9,1544.8,2420.2z"/>
	<path class="st2" d="M1546.4,2598.9c-2.3-4.6-1.9-9.5-1.8-14.4C1548.2,2588.9,1546,2594,1546.4,2598.9z"/>
	<path class="st1" d="M850.7,2635.7c2.2,4.5,1.9,9.4,1.8,14.2C849,2645.5,851.2,2640.4,850.7,2635.7z"/>
	<path class="st1" d="M853.1,2661.3c2.2,3.8,2,7.9,1.8,12.1C851.6,2669.7,853.4,2665.3,853.1,2661.3z"/>
	<path class="st3" d="M4154.3,2609.7c0,0,0-0.1,0-0.1c0-38.7,0-77.5,0-116.2c-0.3-0.8-0.5-1.6-0.6-2.5c-1.8-7.8-1.1-15.7-1.2-23.6
		c-0.2-5.5-0.3-10.9-0.5-16.4c-2.5-5.3-1.8-10.9-1.7-16.4c0,0,0,0,0,0c0,0,0,0,0,0c-0.2-4.6-0.5-9.2-0.7-13.8c0,0,0,0,0,0s0,0,0,0
		c-2.2-3.8-1.9-7.9-1.6-12c0,0,0,0,0,0c0,0,0,0,0,0c-4.1-29.9-7.3-59.9-12.6-89.6c-6.2-35.2-12.6-70.4-23-104.7
		c-3.3,3.1-7.4,2-11.2,2c-329.1,0-658.1,1.7-987.2-0.7c-192.8-1.4-385.5-0.1-578.2-1.5c0,0,0,0,0,0c-0.4,28.1-0.7,56.2-1.1,84.3
		c-0.1,101.4-0.2,202.7-0.4,304.1c0,0.3,0,0.6-0.1,0.9c0.1,2.4-0.1,4.8-1.2,7.1c-0.2,22.5-0.4,45-0.7,67.5c0.1,14,0.7,28.1-1,42
		c-0.2,1.7-0.4,3.4-0.7,5.1c1.7,21.1-2,42.2,0,63.4c3.4,35.9,22.2,51,55.9,52.6c40.5,1.9,81.1,0.6,121.7,0.6
		c4.4-2.5,9.2-1.3,13.8-1.3c120.9-0.1,241.9,0,362.8-0.1c75.3,0,150.6-0.3,225.9-0.4c0,0,0,0,0,0l0,0c26.4-0.7,52.8-1.9,79,1.6
		c26.7,3.5,40,18,38.3,41.4c-0.7,9-3.3,17.9-5.7,26.7c-9.9,37.2-23.5,73.1-39.1,108.3c-21.3,48-47.7,93.1-78.3,135.8
		c-19.3,26.9-40.2,52.5-62.3,77.2c-19.2,21.4-39.4,42-60.3,61.6c-24.5,23-51.5,43.2-77.5,64.7c3.2,2.2,6.6,4.2,9.6,6.6
		c53,41.6,106,83.4,159,125c89.2,70,178.5,139.9,267.6,210c35.4,27.8,70.9,55.1,116.5,64.4c26.1-22.8,51.1-46.5,75.2-71.4
		c34.1-35.3,66.2-72.3,95.9-111.3c68.5-90.1,124.5-187.6,169.5-291.4c49.4-114.1,85.2-232.5,111.7-353.8
		c13.8-63.4,24.2-127.4,33.2-191.6c-0.2-4-0.6-8.1,1.8-11.7c0,0,0,0,0,0c0.2-3.1,0.4-6.2,0.5-9.3c0,0,0,0,0,0c0,0,0,0,0,0
		c-0.3-4.1-0.5-8.1,1.7-11.8c0,0,0,0,0,0c0.2-3.9,0.4-7.7,0.6-11.6c0,0,0,0,0,0c-0.1-4.8-0.6-9.7,1.7-14.1c0,0,0,0,0,0
		c0.2-4.6,0.4-9.3,0.6-13.9c-0.1-5.6-0.6-11.2,1.7-16.6c0,0,0,0,0-0.1c0.2-6.2,0.4-12.3,0.6-18.5
		C4152.6,2627.1,4151.8,2618.3,4154.3,2609.7z"/>
	<path class="st4" d="M3627.7,1234.7c-5.2-7.2-11-14.2-17.5-20.2c-50.5-46.7-104.6-88.8-161.6-127.2
		c-76.2-51.4-156.8-94.5-241.3-130.5c-130.8-55.7-267.2-91.5-406.9-115.4c-53.7-9.2-107.9-15.3-162-21.8c-4.2,0.3-8.3,0.2-12.2-1.7
		c0,0-0.1,0-0.1,0c-4.5-0.3-9-0.5-13.5-0.8c-3.8,0.2-7.6,0.3-11.3-0.7c-1-0.2-1.9-0.5-2.8-1c-4.7-0.2-9.4-0.4-14-0.6
		c-5.6,0.2-11.2,0.3-16.7-0.6c-1.5-0.2-3-0.5-4.5-1c-28,0-55.9,0-83.9,0c-2,0.8-4.1,1.1-6.2,1.2c-5.7,0.8-11.5,0.7-17.3,0.5
		c0,0,0,0,0,0l0,0c-5.4,0.2-10.8,0.4-16.2,0.7c-0.9,0.5-1.9,0.8-2.9,1c-3.7,1-7.5,0.9-11.3,0.7c-33.8,4.3-67.8,7.5-101.4,13.2
		c-88.6,14.8-176.4,33.5-262.7,58.3c-114.6,32.9-225.4,75.5-331,131.1c-92.6,48.7-180,105.1-260.9,171.8
		c-29.9,24.7-59.3,49.9-87.8,76.2c-18,16.7-35.2,34.3-52.2,52c-26.8,27.7-52.1,56.9-77,86.4c-31.8,37.6-61.2,76.7-89.4,117
		c-31.2,44.6-60.1,90.6-86.9,138c-15.8,28-31.9,55.8-45.1,85.2c-0.2,5.6,4.1,8.1,7.8,10.9c50.2,38.3,100.3,76.9,150.6,115.2
		c47.1,36,94.3,72,141.4,108c83.3,63.8,166.7,127.6,250,191.4c3.6,2.8,7,6.5,12.4,5.2c14.1-37.9,28.6-75.8,45.9-112.4
		c36.5-77.2,80.7-149.6,135.1-215.7c44.4-54.1,94-102.7,149.4-145.3c66.4-51.1,138.7-92.1,215.6-125.6
		c66.7-29.1,135.1-52.5,205.9-68.8c42.5-9.8,85.6-16.6,129.2-19.1c0.7-0.3,1.4-0.6,2.2-0.7c4.8-1.4,9.7-1.1,14.6-1
		c7.6-0.2,15.2-0.5,22.9-0.7c20.7-2.2,41.5-2.2,62.2,0c0,0,0,0,0,0c7.6,0.2,15.2,0.5,22.9,0.7c4.7-0.2,9.4-0.4,13.9,0.9
		c0.9,0.2,1.8,0.4,2.6,0.9c3.8,0.2,7.7,0.4,11.5,0.5c4.1-0.2,8.2-0.3,12,1.7c0,0,0,0,0.1,0c14.6,2.3,29.2,4.3,43.8,6.5
		c41.5,6.2,82,16.5,122,28.8c44.8,13.8,88,31.6,130.1,52.1c25.9,12.6,50.9,27,75.9,41.4c35.3,20.4,68.9,43.3,101.8,67.4
		c17.5,12.8,35.2,25.5,58,27c3.8,0,7.7-0.1,11.5-0.1c15.1-2.6,27.4-10.2,38.1-20.9c115.4-115.4,230.8-230.9,346.2-346.3
		c17.9-17.9,36.1-35.5,53.6-53.8C3638.1,1275.6,3640.9,1253.2,3627.7,1234.7z"/>
	<path class="st1" d="M854.8,2331.4c0.3,4.1,0.4,8.2-1.8,11.9C853.4,2339.3,851.6,2335,854.8,2331.4z"/>
	<path class="st2" d="M1547,2396.8c-0.2-4.1-0.3-8.2,1.8-11.9C1548.4,2388.9,1550.2,2393.3,1547,2396.8z"/>
	<path class="st5" d="M3647.9,3757.6c-27.2-7.1-51.2-20.6-73.6-37.3c-26.3-19.6-51.8-40.1-77.7-60.2
		c-72.6-56.6-145-113.4-217.3-170.4c-53-41.8-106.1-83.3-159.1-125.1c-4.4-3.5-8.4-8.5-15.2-7.3c-5.1,1.5-10.4,2.8-15.4,4.7
		c-20,7.3-36.9,20.3-55.6,30c-75.3,39.3-153.5,71-236.1,91.4c-46.2,11.4-92.6,21.4-140.3,24.4c-3.8,2.1-7.9,2-12.1,1.8
		c-3.8,0.2-7.7,0.4-11.5,0.5c-0.9,0.5-1.8,0.7-2.8,0.9c-4.5,1.2-9.2,1-13.8,0.9c-6.2,0.2-12.4,0.4-18.5,0.5
		c-1.1,0.3-2.3,0.5-3.4,0.7c-10.6,1.9-21.3,1-32,1.1c-11-0.1-22-0.1-33-0.2c-11.1,0.3-22.2,0.9-33.2-1.5c0,0-0.1,0-0.1,0
		c-6.9-0.3-13.7-0.6-20.6-0.8c-4.2,0.3-8.5,0.5-12.5-0.9c-0.6-0.2-1.2-0.4-1.8-0.7c-4.6-0.3-9.2-0.5-13.8-0.8
		c-3.3,0.2-6.7,0.4-9.8-0.8c-0.7-0.2-1.3-0.4-1.9-0.9c-39.9-1.7-78.8-10-117.5-18.9c-113.3-25.9-219.1-70.2-316.8-133.3
		c-81.4-52.6-153.3-116.1-216.4-189.9c-50.3-58.8-92.7-122.8-128.9-191c-25.5-48-46.4-98.2-64.5-149.5c-7-1.8-10.7,3.9-15.1,7.2
		c-103.9,79.9-208.1,159.3-312,239.1c-75.5,57.9-151.2,115.5-226.6,173.6c-3.4,2.6-7.2,4.8-8,9.6c1,3.3,1.5,6.8,3,9.9
		c19.5,40.4,40.5,80,64,118.1c32.6,52.8,67.3,104.1,105.4,153.3c32.4,41.7,66.4,81.9,102.4,120.3c25.2,26.9,51.4,53.1,79.3,77.6
		c24.2,21.3,48.4,42.6,73,63.5c33.1,28.1,67.4,54.5,103,79c85.8,59.2,174.8,113,269.9,156.6c45.8,21,92.1,40.8,139.6,57.6
		c35.7,12.7,71.7,24.6,108.2,35.1c45.5,13.1,91.4,24.2,137.8,32.9c38.1,7.2,76.4,14.1,115.2,17.3c3.5-0.2,7-0.2,10.3,1
		c0.6,0.2,1.1,0.4,1.7,0.8c3.1,0.2,6.1,0.4,9.2,0.5c4.2-0.3,8.3-0.3,12.2,1.7c0,0,0,0,0.1,0c4.5,0.3,9,0.5,13.5,0.8
		c3.8-0.2,7.7-0.3,11.3,0.7c0.9,0.2,1.9,0.5,2.8,1c4.7,0.2,9.3,0.4,14,0.5c4.9-0.2,9.9-0.3,14.7,0.7c1.4,0.2,2.8,0.5,4.1,1.1
		c7,0.2,14,0.4,21,0.6c7.1-0.2,14.3-0.3,21.3,0.5c2.4,0.1,4.8,0.4,7.1,1.1c38,0,76,0,114.1,0c2.2-0.6,4.4-0.9,6.7-1.1
		c8-0.9,16-0.7,24-0.7c0,0,0,0,0,0c0,0,0,0,0,0c6.9-0.2,13.8-0.4,20.7-0.6c0,0,0,0,0,0h0c0,0,0,0,0,0c1-0.4,2-0.7,3-0.8
		c5.3-1.2,10.7-1,16.1-0.9c4.7-0.2,9.3-0.3,14-0.5c0.9-0.5,1.8-0.8,2.6-1c3.7-1.1,7.6-1,11.4-0.7c4.6-0.2,9.3-0.5,13.9-0.7
		c0.5-0.3,1.1-0.6,1.6-0.7c3.3-1.3,6.8-1.2,10.3-0.9c0,0,0,0,0,0c0,0,0,0,0,0c3.9-0.2,7.7-0.5,11.6-0.7l0,0l0,0c0,0,0,0,0,0
		c0.6-0.4,1.2-0.6,1.8-0.8c3.2-1.2,6.7-1.2,10.1-1c6.4-0.9,12.9-2.1,19.3-2.8c44.8-4.6,89.1-12.8,133.4-20.9
		c106.8-19.5,210.8-48.5,311.8-88.5c82.6-32.8,161.4-72.7,236.2-120.5c49-31.3,95.6-66,139.7-103.8c28-24,55.8-48.5,80.5-76.1
		C3655.6,3759.3,3651.6,3758.6,3647.9,3757.6z"/>
</g>
</svg>
